<?xml version="1.0" standalone="no"?>
<svg id="render" width="100%" xmlns="http://www.w3.org/2000/svg" xmlns:xlink="http://www.w3.org/1999/xlink" height="1708.875" style="max-width: 1312.71875px;" viewBox="-55 -20 1312.71875 1708.875"><style>#render{font-family:"trebuchet ms",verdana,arial,sans-serif;font-size:16px;fill:#333;}#render .error-icon{fill:#552222;}#render .error-text{fill:#552222;stroke:#552222;}#render .edge-thickness-normal{stroke-width:2px;}#render .edge-thickness-thick{stroke-width:3.5px;}#render .edge-pattern-solid{stroke-dasharray:0;}#render .edge-pattern-dashed{stroke-dasharray:3;}#render .edge-pattern-dotted{stroke-dasharray:2;}#render .marker{fill:#333333;stroke:#333333;}#render .marker.cross{stroke:#333333;}#render svg{font-family:"trebuchet ms",verdana,arial,sans-serif;font-size:16px;}#render g.classGroup text{fill:#9370DB;fill:#131300;stroke:none;font-family:"trebuchet ms",verdana,arial,sans-serif;font-size:10px;}#render g.classGroup text .title{font-weight:bolder;}#render .classTitle{font-weight:bolder;}#render .node rect,#render .node circle,#render .node ellipse,#render .node polygon,#render .node path{fill:#ECECFF;stroke:#9370DB;stroke-width:1px;}#render .divider{stroke:#9370DB;stroke:1;}#render g.clickable{cursor:pointer;}#render g.classGroup rect{fill:#ECECFF;stroke:#9370DB;}#render g.classGroup line{stroke:#9370DB;stroke-width:1;}#render .classLabel .box{stroke:none;stroke-width:0;fill:#ECECFF;opacity:0.5;}#render .classLabel .label{fill:#9370DB;font-size:10px;}#render .relation{stroke:#333333;stroke-width:1;fill:none;}#render .dashed-line{stroke-dasharray:3;}#render #compositionStart,#render .composition{fill:#333333 !important;stroke:#333333 !important;stroke-width:1;}#render #compositionEnd,#render .composition{fill:#333333 !important;stroke:#333333 !important;stroke-width:1;}#render #dependencyStart,#render .dependency{fill:#333333 !important;stroke:#333333 !important;stroke-width:1;}#render #dependencyStart,#render .dependency{fill:#333333 !important;stroke:#333333 !important;stroke-width:1;}#render #extensionStart,#render .extension{fill:#333333 !important;stroke:#333333 !important;stroke-width:1;}#render #extensionEnd,#render .extension{fill:#333333 !important;stroke:#333333 !important;stroke-width:1;}#render #aggregationStart,#render .aggregation{fill:#ECECFF !important;stroke:#333333 !important;stroke-width:1;}#render #aggregationEnd,#render .aggregation{fill:#ECECFF !important;stroke:#333333 !important;stroke-width:1;}#render .edgeTerminals{font-size:11px;}#render:root{--mermaid-font-family:"trebuchet ms",verdana,arial,sans-serif;}</style><g></g><defs><marker id="extensionStart" class="extension" refX="0" refY="7" markerWidth="190" markerHeight="240" orient="auto"><path d="M 1,7 L18,13 V 1 Z"></path></marker></defs><defs><marker id="extensionEnd" refX="19" refY="7" markerWidth="20" markerHeight="28" orient="auto"><path d="M 1,1 V 13 L18,7 Z"></path></marker></defs><defs><marker id="compositionStart" class="extension" refX="0" refY="7" markerWidth="190" markerHeight="240" orient="auto"><path d="M 18,7 L9,13 L1,7 L9,1 Z"></path></marker></defs><defs><marker id="compositionEnd" refX="19" refY="7" markerWidth="20" markerHeight="28" orient="auto"><path d="M 18,7 L9,13 L1,7 L9,1 Z"></path></marker></defs><defs><marker id="aggregationStart" class="extension" refX="0" refY="7" markerWidth="190" markerHeight="240" orient="auto"><path d="M 18,7 L9,13 L1,7 L9,1 Z"></path></marker></defs><defs><marker id="aggregationEnd" refX="19" refY="7" markerWidth="20" markerHeight="28" orient="auto"><path d="M 18,7 L9,13 L1,7 L9,1 Z"></path></marker></defs><defs><marker id="dependencyStart" class="extension" refX="0" refY="7" markerWidth="190" markerHeight="240" orient="auto"><path d="M 5,7 L9,13 L1,7 L9,1 Z"></path></marker></defs><defs><marker id="dependencyEnd" refX="19" refY="7" markerWidth="20" markerHeight="28" orient="auto"><path d="M 18,7 L9,13 L14,7 L9,1 Z"></path></marker></defs><g id="classid-MediaStreamTrack-0" class="classGroup" transform="translate(658.203125,238.15625 )"><rect x="0" y="0" width="96.921875" height="198.15625" class=" "></rect><text y="15" x="0"><tspan class="title" x="5.1328125">MediaStreamTrack</tspan></text><line x1="0" y1="21" y2="21" x2="96.921875"></line><text x="5" y="31" fill="white" class="classText"><tspan x="5">contentHint</tspan><tspan x="5" dy="10">enabled</tspan><tspan x="5" dy="10">id</tspan><tspan x="5" dy="10">kind</tspan><tspan x="5" dy="10">label</tspan><tspan x="5" dy="10">muted</tspan><tspan x="5" dy="10">onended</tspan><tspan x="5" dy="10">onmute</tspan><tspan x="5" dy="10">onunmute</tspan><tspan x="5" dy="10">readyState</tspan></text><line x1="0" y1="127.0625" y2="127.0625" x2="96.921875"></line><text x="5" y="142.0625" fill="white" class="classText"><tspan x="5">applyConstraints()</tspan><tspan x="5" dy="10">clone()</tspan><tspan x="5" dy="10">getCapabilities()</tspan><tspan x="5" dy="10">getConstraints()</tspan><tspan x="5" dy="10">getSettings()</tspan><tspan x="5" dy="10">stop()</tspan></text></g><g id="classid-RTCPeerConnection-1" class="classGroup" transform="translate(334.05078125,1180.71875 )"><rect x="0" y="0" width="142.6875" height="488.15625" class=" "></rect><text y="15" x="0"><tspan class="title" x="24.8671875">RTCPeerConnection</tspan></text><line x1="0" y1="21" y2="21" x2="142.6875"></line><text x="5" y="31" fill="white" class="classText"><tspan x="5">canTrickleIceCandidates</tspan><tspan x="5" dy="10">connectionState</tspan><tspan x="5" dy="10">currentLocalDescription</tspan><tspan x="5" dy="10">currentRemoteDescription</tspan><tspan x="5" dy="10">iceConnectionState</tspan><tspan x="5" dy="10">iceGatheringState</tspan><tspan x="5" dy="10">localDescription</tspan><tspan x="5" dy="10">onaddstream</tspan><tspan x="5" dy="10">onconnectionstatechange</tspan><tspan x="5" dy="10">ondatachannel</tspan><tspan x="5" dy="10">onicecandidate</tspan><tspan x="5" dy="10">onicecandidateerror</tspan><tspan x="5" dy="10">oniceconnectionstatechange</tspan><tspan x="5" dy="10">onicegatheringstatechange</tspan><tspan x="5" dy="10">onnegotiationneeded</tspan><tspan x="5" dy="10">onremovestream</tspan><tspan x="5" dy="10">onsignalingstatechange</tspan><tspan x="5" dy="10">ontrack</tspan><tspan x="5" dy="10">pendingLocalDescription</tspan><tspan x="5" dy="10">pendingRemoteDescription</tspan><tspan x="5" dy="10">remoteDescription</tspan><tspan x="5" dy="10">sctp</tspan><tspan x="5" dy="10">signalingState</tspan></text><line x1="0" y1="257.0625" y2="257.0625" x2="142.6875"></line><text x="5" y="272.0625" fill="white" class="classText"><tspan x="5">addIceCandidate()</tspan><tspan x="5" dy="10">addStream()</tspan><tspan x="5" dy="10">addTrack()</tspan><tspan x="5" dy="10">addTransceiver()</tspan><tspan x="5" dy="10">close()</tspan><tspan x="5" dy="10">createAnswer()</tspan><tspan x="5" dy="10">createDataChannel()</tspan><tspan x="5" dy="10">createDTMFSender()</tspan><tspan x="5" dy="10">createOffer()</tspan><tspan x="5" dy="10">getConfiguration()</tspan><tspan x="5" dy="10">getLocalStreams()</tspan><tspan x="5" dy="10">getReceivers()</tspan><tspan x="5" dy="10">getRemoteStreams()</tspan><tspan x="5" dy="10">getSenders()</tspan><tspan x="5" dy="10">getStats()</tspan><tspan x="5" dy="10">getTransceivers()</tspan><tspan x="5" dy="10">removeStream()</tspan><tspan x="5" dy="10">removeTrack()</tspan><tspan x="5" dy="10">restartIce()</tspan><tspan x="5" dy="10">setConfiguration()</tspan><tspan x="5" dy="10">setLocalDescription()</tspan><tspan x="5" dy="10">setRemoteDescription()</tspan></text></g><g id="classid-MediaStream-2" class="classGroup" transform="translate(460.17578125,486.3125 )"><rect x="0" y="0" width="90.9375" height="168.09375" class=" "></rect><text y="15" x="0"><tspan class="title" x="15.296875">MediaStream</tspan></text><line x1="0" y1="21" y2="21" x2="90.9375"></line><text x="5" y="31" fill="white" class="classText"><tspan x="5">active</tspan><tspan x="5" dy="10">id</tspan><tspan x="5" dy="10">onactive</tspan><tspan x="5" dy="10">onaddtrack</tspan><tspan x="5" dy="10">oninactive</tspan><tspan x="5" dy="10">onremovetrack</tspan></text><line x1="0" y1="87" y2="87" x2="90.9375"></line><text x="5" y="102" fill="white" class="classText"><tspan x="5">addTrack()</tspan><tspan x="5" dy="10">clone()</tspan><tspan x="5" dy="10">getAudioTracks()</tspan><tspan x="5" dy="10">getTrackById()</tspan><tspan x="5" dy="10">getTracks()</tspan><tspan x="5" dy="10">getVideoTracks()</tspan><tspan x="5" dy="10">removeTrack()</tspan></text></g><g id="classid-MediaDeviceInfo-3" class="classGroup" transform="translate(166.05859375,526.3125 )"><rect x="0" y="0" width="86.65625" height="88.09375" class=" "></rect><text y="15" x="0"><tspan class="title" x="5">MediaDeviceInfo</tspan></text><line x1="0" y1="21" y2="21" x2="86.65625"></line><text x="5" y="31" fill="white" class="classText"><tspan x="5">deviceId</tspan><tspan x="5" dy="10">groupId</tspan><tspan x="5" dy="10">kind</tspan><tspan x="5" dy="10">label</tspan></text><line x1="0" y1="67" y2="67" x2="86.65625"></line><text x="5" y="82" fill="white" class="classText"><tspan x="5">toJSON()</tspan></text></g><g id="classid-MediaDevices-4" class="classGroup" transform="translate(143.01953125,729.4375 )"><rect x="0" y="0" width="132.734375" height="88.15625" class=" "></rect><text y="15" x="0"><tspan class="title" x="34.90625">MediaDevices</tspan></text><line x1="0" y1="21" y2="21" x2="132.734375"></line><text x="5" y="31" fill="white" class="classText"><tspan x="5">ondevicechange</tspan></text><line x1="0" y1="37.0625" y2="37.0625" x2="132.734375"></line><text x="5" y="52.0625" fill="white" class="classText"><tspan x="5">enumerateDevices()</tspan><tspan x="5" dy="10">getDisplayMedia()</tspan><tspan x="5" dy="10">getSupportedConstraints()</tspan><tspan x="5" dy="10">getUserMedia()</tspan></text></g><g id="classid-RTCRtpTransceiver-5" class="classGroup" transform="translate(649.1640625,952.5625 )"><rect x="0" y="0" width="116.46875" height="118.21875" class=" "></rect><text y="15" x="0"><tspan class="title" x="13.578125">RTCRtpTransceiver</tspan></text><line x1="0" y1="21.0625" y2="21.0625" x2="116.46875"></line><text x="5" y="31.0625" fill="white" class="classText"><tspan x="5">currentDirection</tspan><tspan x="5" dy="10">direction</tspan><tspan x="5" dy="10">mid</tspan><tspan x="5" dy="10">receiver</tspan><tspan x="5" dy="10">sender</tspan><tspan x="5" dy="10">stopped</tspan></text><line x1="0" y1="87.125" y2="87.125" x2="116.46875"></line><text x="5" y="102.125" fill="white" class="classText"><tspan x="5">setCodecPreferences()</tspan><tspan x="5" dy="10">stop()</tspan></text></g><g id="classid-RTCRtpReceiver-6" class="classGroup" transform="translate(914.37109375,709.40625 )"><rect x="0" y="0" width="141.609375" height="128.21875" class=" "></rect><text y="15" x="0"><tspan class="title" x="33.1796875">RTCRtpReceiver</tspan></text><line x1="0" y1="21.0625" y2="21.0625" x2="141.609375"></line><text x="5" y="31.0625" fill="white" class="classText"><tspan x="5">playoutDelayHint</tspan><tspan x="5" dy="10">rtcpTransport</tspan><tspan x="5" dy="10">track</tspan><tspan x="5" dy="10">transport</tspan></text><line x1="0" y1="67.125" y2="67.125" x2="141.609375"></line><text x="5" y="82.125" fill="white" class="classText"><tspan x="5">createEncodedStreams()</tspan><tspan x="5" dy="10">getContributingSources()</tspan><tspan x="5" dy="10">getParameters()</tspan><tspan x="5" dy="10">getStats()</tspan><tspan x="5" dy="10">getSynchronizationSources()</tspan></text></g><g id="classid-RTCRtpSender-7" class="classGroup" transform="translate(645.015625,704.40625 )"><rect x="0" y="0" width="124.765625" height="138.21875" class=" "></rect><text y="15" x="0"><tspan class="title" x="28.9609375">RTCRtpSender</tspan></text><line x1="0" y1="21.0625" y2="21.0625" x2="124.765625"></line><text x="5" y="31.0625" fill="white" class="classText"><tspan x="5">dtmf</tspan><tspan x="5" dy="10">rtcpTransport</tspan><tspan x="5" dy="10">track</tspan><tspan x="5" dy="10">transport</tspan></text><line x1="0" y1="67.125" y2="67.125" x2="124.765625"></line><text x="5" y="82.125" fill="white" class="classText"><tspan x="5">createEncodedStreams()</tspan><tspan x="5" dy="10">getParameters()</tspan><tspan x="5" dy="10">getStats()</tspan><tspan x="5" dy="10">replaceTrack()</tspan><tspan x="5" dy="10">setParameters()</tspan><tspan x="5" dy="10">setStreams()</tspan></text></g><g id="classid-RTCDtlsTransport-8" class="classGroup" transform="translate(981.484375,526.28125 )"><rect x="0" y="0" width="123.515625" height="88.15625" class=" "></rect><text y="15" x="0"><tspan class="title" x="20.9375">RTCDtlsTransport</tspan></text><line x1="0" y1="21.0625" y2="21.0625" x2="123.515625"></line><text x="5" y="31.0625" fill="white" class="classText"><tspan x="5">iceTransport</tspan><tspan x="5" dy="10">onerror</tspan><tspan x="5" dy="10">onstatechange</tspan><tspan x="5" dy="10">state</tspan></text><line x1="0" y1="67.0625" y2="67.0625" x2="123.515625"></line><text x="5" y="82.0625" fill="white" class="classText"><tspan x="5">getRemoteCertificates()</tspan></text></g><g id="classid-RTCDTMFSender-9" class="classGroup" transform="translate(601.11328125,531.3125 )"><rect x="0" y="0" width="86.765625" height="78.09375" class=" "></rect><text y="15" x="0"><tspan class="title" x="5">RTCDTMFSender</tspan></text><line x1="0" y1="21" y2="21" x2="86.765625"></line><text x="5" y="31" fill="white" class="classText"><tspan x="5">canInsertDTMF</tspan><tspan x="5" dy="10">ontonechange</tspan><tspan x="5" dy="10">toneBuffer</tspan></text><line x1="0" y1="57" y2="57" x2="86.765625"></line><text x="5" y="72" fill="white" class="classText"><tspan x="5">insertDTMF()</tspan></text></g><g id="classid-RTCIceTransport-10" class="classGroup" transform="translate(964.6484375,263.15625 )"><rect x="0" y="0" width="157.1875" height="148.15625" class=" "></rect><text y="15" x="0"><tspan class="title" x="39.765625">RTCIceTransport</tspan></text><line x1="0" y1="21.0625" y2="21.0625" x2="157.1875"></line><text x="5" y="31.0625" fill="white" class="classText"><tspan x="5">gatheringState</tspan><tspan x="5" dy="10">ongatheringstatechange</tspan><tspan x="5" dy="10">onselectedcandidatepairchange</tspan><tspan x="5" dy="10">onstatechange</tspan><tspan x="5" dy="10">role</tspan><tspan x="5" dy="10">state</tspan></text><line x1="0" y1="87.0625" y2="87.0625" x2="157.1875"></line><text x="5" y="102.0625" fill="white" class="classText"><tspan x="5">getLocalCandidates()</tspan><tspan x="5" dy="10">getLocalParameters()</tspan><tspan x="5" dy="10">getRemoteCandidates()</tspan><tspan x="5" dy="10">getRemoteParameters()</tspan><tspan x="5" dy="10">getSelectedCandidatePair()</tspan></text></g><g id="classid-RTCIceCandidate-11" class="classGroup" transform="translate(992.78125,0 )"><rect x="0" y="0" width="100.921875" height="188.15625" class=" "></rect><text y="15" x="0"><tspan class="title" x="10.96875">RTCIceCandidate</tspan></text><line x1="0" y1="21" y2="21" x2="100.921875"></line><text x="5" y="31" fill="white" class="classText"><tspan x="5">address</tspan><tspan x="5" dy="10">candidate</tspan><tspan x="5" dy="10">component</tspan><tspan x="5" dy="10">foundation</tspan><tspan x="5" dy="10">port</tspan><tspan x="5" dy="10">priority</tspan><tspan x="5" dy="10">protocol</tspan><tspan x="5" dy="10">relatedAddress</tspan><tspan x="5" dy="10">relatedPort</tspan><tspan x="5" dy="10">sdpMid</tspan><tspan x="5" dy="10">sdpMLineIndex</tspan><tspan x="5" dy="10">tcpType</tspan><tspan x="5" dy="10">type</tspan><tspan x="5" dy="10">usernameFragment</tspan></text><line x1="0" y1="167.0625" y2="167.0625" x2="100.921875"></line><text x="5" y="182.0625" fill="white" class="classText"><tspan x="5">toJSON()</tspan></text></g><g id="classid-RTCStatsReport-12" class="classGroup" transform="translate(739.2265625,516.28125 )"><rect x="0" y="0" width="82.609375" height="108.15625" class=" "></rect><text y="15" x="0"><tspan class="title" x="5">RTCStatsReport</tspan></text><line x1="0" y1="21.0625" y2="21.0625" x2="82.609375"></line><text x="5" y="31.0625" fill="white" class="classText"><tspan x="5">size</tspan></text><line x1="0" y1="37.0625" y2="37.0625" x2="82.609375"></line><text x="5" y="52.0625" fill="white" class="classText"><tspan x="5">entries()</tspan><tspan x="5" dy="10">forEach()</tspan><tspan x="5" dy="10">get()</tspan><tspan x="5" dy="10">has()</tspan><tspan x="5" dy="10">keys()</tspan><tspan x="5" dy="10">values()</tspan></text></g><g id="classid-RTCDataChannel-13" class="classGroup" transform="translate(0,892.625 )"><rect x="0" y="0" width="150.140625" height="238.09375" class=" "></rect><text y="15" x="0"><tspan class="title" x="36.4375">RTCDataChannel</tspan></text><line x1="0" y1="21" y2="21" x2="150.140625"></line><text x="5" y="31" fill="white" class="classText"><tspan x="5">binaryType</tspan><tspan x="5" dy="10">bufferedAmount</tspan><tspan x="5" dy="10">bufferedAmountLowThreshold</tspan><tspan x="5" dy="10">id</tspan><tspan x="5" dy="10">label</tspan><tspan x="5" dy="10">maxPacketLifeTime</tspan><tspan x="5" dy="10">maxRetransmits</tspan><tspan x="5" dy="10">negotiated</tspan><tspan x="5" dy="10">onbufferedamountlow</tspan><tspan x="5" dy="10">onclose</tspan><tspan x="5" dy="10">onclosing</tspan><tspan x="5" dy="10">onerror</tspan><tspan x="5" dy="10">onmessage</tspan><tspan x="5" dy="10">onopen</tspan><tspan x="5" dy="10">ordered</tspan><tspan x="5" dy="10">protocol</tspan><tspan x="5" dy="10">readyState</tspan><tspan x="5" dy="10">reliable</tspan></text><line x1="0" y1="207" y2="207" x2="150.140625"></line><text x="5" y="222" fill="white" class="classText"><tspan x="5">close()</tspan><tspan x="5" dy="10">send()</tspan></text></g><g id="classid-RTCSessionDescription-14" class="classGroup" transform="translate(200.140625,977.5625 )"><rect x="0" y="0" width="115.5625" height="68.21875" class=" "></rect><text y="15" x="0"><tspan class="title" x="5">RTCSessionDescription</tspan></text><line x1="0" y1="21.0625" y2="21.0625" x2="115.5625"></line><text x="5" y="31.0625" fill="white" class="classText"><tspan x="5">sdp</tspan><tspan x="5" dy="10">type</tspan></text><line x1="0" y1="47.125" y2="47.125" x2="115.5625"></line><text x="5" y="62.125" fill="white" class="classText"><tspan x="5">toJSON()</tspan></text></g><g id="classid-RTCCertificate-15" class="classGroup" transform="translate(365.703125,982.59375 )"><rect x="0" y="0" width="90.5" height="58.15625" class=" "></rect><text y="15" x="0"><tspan class="title" x="11.109375">RTCCertificate</tspan></text><line x1="0" y1="21" y2="21" x2="90.5"></line><text x="5" y="31" fill="white" class="classText"><tspan x="5">expires</tspan></text><line x1="0" y1="37.0625" y2="37.0625" x2="90.5"></line><text x="5" y="52.0625" fill="white" class="classText"><tspan x="5">getFingerprints()</tspan></text></g><g id="classid-RTCSctpTransport-16" class="classGroup" transform="translate(1143.703125,53.515625 )"><rect x="0" y="0" width="94.015625" height="81.125" class=" "></rect><text y="15" x="0"><tspan class="title" x="5">RTCSctpTransport</tspan></text><line x1="0" y1="21.0625" y2="21.0625" x2="94.015625"></line><text x="5" y="31.0625" fill="white" class="classText"><tspan x="5">maxChannels</tspan><tspan x="5" dy="10">maxMessageSize</tspan><tspan x="5" dy="10">onstatechange</tspan><tspan x="5" dy="10">state</tspan><tspan x="5" dy="10">transport</tspan></text><line x1="0" y1="77.125" y2="77.125" x2="94.015625"></line><text x="5" y="92.125" fill="white" class="classText"></text></g><path d="M658.203125,345.3417413465286L542.6692708333334,364.67020112210713C427.1354166666667,383.99866089768574,196.06770833333334,422.65558044884284,80.53385416666667,460.1585193910881C-35,497.6614583333333,-35,534.0104166666666,-35,570.359375C-35,606.7083333333334,-35,643.0572916666666,-35,676.9166666666666C-35,710.7760416666666,-35,742.1458333333334,-35,773.515625C-35,804.8854166666666,-35,836.2552083333334,-35,875.9479166666666C-35,915.640625,-35,963.65625,-35,1011.671875C-35,1059.6875,-35,1107.703125,26.508463541666668,1169.292198998516C88.01692708333333,1230.8812729970316,211.03385416666666,1306.043795994063,272.5423177083333,1343.625057492579L334.05078125,1381.2063189910946" id="edge0" class="relation" marker-start="url(#dependencyStart)"></path><path d="M658.203125,367.1466040423816L632.7766927083334,382.84092003531805C607.3502604166666,398.53523602825436,556.4973958333334,429.9238680141272,531.0709635416666,449.78485067373026C505.64453125,469.6458333333333,505.64453125,477.9791666666667,505.64453125,482.1458333333333L505.64453125,486.3125" id="edge1" class="relation" marker-start="url(#dependencyStart)"></path><path d="M494.5139503331423,654.40625L493.9621461109519,658.5729166666666C493.4103418887615,662.7395833333334,492.30673344438077,671.0729166666666,491.7549292221904,690.9244791666666C491.203125,710.7760416666666,491.203125,742.1458333333334,491.203125,773.515625C491.203125,804.8854166666666,491.203125,836.2552083333334,491.203125,875.9479166666666C491.203125,915.640625,491.203125,963.65625,491.203125,1011.671875C491.203125,1059.6875,491.203125,1107.703125,488.7923177083333,1139.2707339892415C486.3815104166667,1170.8383429784828,481.5598958333333,1185.957935956966,479.1490885416667,1193.5177324462072L476.73828125,1201.0775289354488" id="edge2" class="relation" marker-start="url(#dependencyStart)"></path><path d="M209.38671875,614.40625L209.38671875,625.2395833333334C209.38671875,636.0729166666666,209.38671875,657.7395833333334,209.38671875,676.9114583333334C209.38671875,696.0833333333334,209.38671875,712.7604166666666,209.38671875,721.0989583333334L209.38671875,729.4375" id="edge3" class="relation" marker-start="url(#dependencyStart)"></path><path d="M509.9287662093423,654.40625L510.14115934111857,658.5729166666666C510.3535524728948,662.7395833333334,510.77833873644744,671.0729166666666,471.74919540989043,687.4754869941652C432.7200520833333,703.8780573216636,354.2369791666667,728.3498646433271,314.9954427083333,740.5857683041589L275.75390625,752.8216719649906" id="edge4" class="relation" marker-start="url(#dependencyStart)"></path><path d="M707.3984375,1070.78125L707.3984375,1084.9375C707.3984375,1099.09375,707.3984375,1127.40625,668.955078125,1175.8145968942804C630.51171875,1224.2229437885608,553.625,1292.7271375771215,515.181640625,1326.979234471402L476.73828125,1361.2313313656823" id="edge5" class="relation" marker-start="url(#dependencyStart)"></path><path d="M985.17578125,837.625L985.17578125,842.625C985.17578125,847.625,985.17578125,857.625,948.5852864583334,881.599716793991C911.9947916666666,905.5744335879822,838.8138020833334,943.5238671759644,802.2233072916666,962.4985839699553L765.6328125,981.4733007639466" id="edge6" class="relation" marker-start="url(#dependencyStart)"></path><path d="M707.3984375,842.625L707.3984375,846.7916666666666C707.3984375,850.9583333333334,707.3984375,859.2916666666666,707.3984375,877.6145833333334C707.3984375,895.9375,707.3984375,924.25,707.3984375,938.40625L707.3984375,952.5625" id="edge7" class="relation" marker-start="url(#dependencyStart)"></path><path d="M755.125,368.9361877265425L778.66015625,384.3322397721188C802.1953125,399.72829181769504,849.265625,430.52039590884755,872.80078125,464.0909271210904C896.3359375,497.6614583333333,896.3359375,534.0104166666666,896.3359375,570.359375C896.3359375,606.7083333333334,896.3359375,643.0572916666666,875.2434895833334,671.7378751834891C854.1510416666666,700.4184587003115,811.9661458333334,721.430667400623,790.8736979166666,731.9367717507788L769.78125,742.4428761009345" id="edge8" class="relation" marker-start="url(#dependencyStart)"></path><path d="M755.125,365.91224255253746L781.9934895833334,381.81228546044787C808.8619791666666,397.7123283683583,862.5989583333334,429.51241418417914,889.4674479166666,463.5869362587562C916.3359375,497.6614583333333,916.3359375,534.0104166666666,916.3359375,570.359375C916.3359375,606.7083333333334,916.3359375,643.0572916666666,919.9933756537439,666.2317708333334C923.6508138074879,689.40625,930.9656901149759,699.40625,934.6231282687198,704.40625L938.2805664224638,709.40625" id="edge9" class="relation" marker-start="url(#dependencyStart)"></path><path d="M1015.5425691135907,614.4375L1008.737948219659,625.265625C1001.9333273257271,636.09375,988.3240855378635,657.75,947.3638656855984,680.6026846438C906.4036458333334,703.4553692876001,838.0924479166666,727.5044885752001,803.9368489583334,739.5290482190002L769.78125,751.5536078628002" id="edge10" class="relation" marker-start="url(#dependencyStart)"></path><path d="M644.49609375,609.40625L644.49609375,621.0729166666666C644.49609375,632.7395833333334,644.49609375,656.0729166666666,647.2810777004123,671.90625C650.0660616508246,687.7395833333334,655.6360295516492,696.0729166666666,658.4210135020616,700.2395833333334L661.2059974524739,704.40625" id="edge11" class="relation" marker-start="url(#dependencyStart)"></path><path d="M1047.2843138791375,614.4375L1048.277292815948,625.265625C1049.2702717527584,636.09375,1051.2562296263793,657.75,1048.6328628882768,673.578125C1046.0094961501743,689.40625,1038.7768048003486,699.40625,1035.1604591254356,704.40625L1031.544113450523,709.40625" id="edge12" class="relation" marker-start="url(#dependencyStart)"></path><path d="M1043.2421875,411.3125L1043.2421875,419.6458333333333C1043.2421875,427.9791666666667,1043.2421875,444.6458333333333,1043.2421875,463.8072916666667C1043.2421875,482.96875,1043.2421875,504.625,1043.2421875,515.453125L1043.2421875,526.28125" id="edge13" class="relation" marker-start="url(#dependencyStart)"></path><path d="M1043.2421875,188.15625L1043.2421875,192.32291666666666C1043.2421875,196.48958333333334,1043.2421875,204.82291666666666,1043.2421875,217.32291666666666C1043.2421875,229.82291666666666,1043.2421875,246.48958333333334,1043.2421875,254.82291666666666L1043.2421875,263.15625" id="edge14" class="relation" marker-start="url(#dependencyStart)"></path><path d="M751.4252237740005,624.4375L746.4943271033338,633.5989583333334C741.5634304326671,642.7604166666666,731.7016370913335,661.0833333333334,758.8592820873333,681.7123969983979C786.0169270833334,702.3414606634625,850.1940104166666,725.2766713269251,882.2825520833334,736.7442766586564L914.37109375,748.2118819903877" id="edge15" class="relation" marker-start="url(#dependencyStart)"></path><path d="M782.6195226303912,624.4375L782.9733001086594,633.5989583333334C783.3270775869274,642.7604166666666,784.0346325434638,661.0833333333334,780.9640367858029,674.4114583333334C777.8934410281421,687.7395833333334,771.0446945562843,696.0729166666666,767.6203213203553,700.2395833333334L764.1959480844264,704.40625" id="edge16" class="relation" marker-start="url(#dependencyStart)"></path><path d="M811.7255488563906,624.4375L817.0102230053254,633.5989583333334C822.2948971542604,642.7604166666666,832.8642454521301,661.0833333333334,838.1489196010651,685.9296875C843.43359375,710.7760416666666,843.43359375,742.1458333333334,843.43359375,773.515625C843.43359375,804.8854166666666,843.43359375,836.2552083333334,843.43359375,875.9479166666666C843.43359375,915.640625,843.43359375,963.65625,843.43359375,1011.671875C843.43359375,1059.6875,843.43359375,1107.703125,782.3177083333334,1169.2531323941632C721.2018229166666,1230.8031397883262,598.9700520833334,1305.8875295766527,537.8541666666666,1343.4297244708157L476.73828125,1380.971919364979" id="edge17" class="relation" marker-start="url(#dependencyStart)"></path><path d="M75.0703125,1130.71875L75.0703125,1134.8854166666667C75.0703125,1139.0520833333333,75.0703125,1147.3854166666667,118.23372395833333,1186.7124777717502C161.39713541666666,1226.0395388768336,247.72395833333334,1296.360327753667,290.8873697916667,1331.5207221920837L334.05078125,1366.6811166305004" id="edge18" class="relation" marker-start="url(#dependencyStart)"></path><path d="M257.921875,1045.78125L257.921875,1064.1041666666667C257.921875,1082.4270833333333,257.921875,1119.0729166666667,270.6100260416667,1160.5465921168516C283.2981770833333,1202.0202675670366,308.6744791666667,1248.3217851340733,321.3626302083333,1271.4725439175916L334.05078125,1294.6233027011099" id="edge19" class="relation" marker-start="url(#dependencyStart)"></path><path d="M410.953125,1040.75L410.953125,1059.9114583333333C410.953125,1079.0729166666667,410.953125,1117.3958333333333,410.8670503430888,1140.7239583333333C410.7809756861777,1164.0520833333333,410.60882637235545,1172.3854166666667,410.52275171544426,1176.5520833333333L410.4366770585332,1180.71875" id="edge20" class="relation" marker-start="url(#dependencyStart)"></path><path d="M551.11328125,646.6581021579707L554.3658854166666,652.1161267983089C557.6184895833334,657.5741514386472,564.1236979166666,668.4902007193235,579.7740885416666,682.4789845449405C595.4244791666666,696.4677683705577,620.2200520833334,713.5292867411152,632.6178385416666,722.0600459263941L645.015625,730.5908051116728" id="edge21" class="relation" marker-start="url(#dependencyStart)"></path></svg>